<svg xmlns="http://www.w3.org/2000/svg" width="300" height="78" fill="none"><path fill="#012970" d="M92.198 53.64c-.964 0-1.672-.21-2.124-.632-.422-.452-.633-1.1-.633-1.944 0-.512.135-1.01.407-1.492.271-.482.663-.994 1.175-1.537l9.086-9.673c1.386-1.447 2.38-2.757 2.983-3.933.603-1.205.904-2.41.904-3.616 0-1.507-.482-2.652-1.446-3.435-.935-.784-2.306-1.175-4.114-1.175-1.024 0-2.049.15-3.074.451-1.024.272-2.064.754-3.118 1.447-.543.362-1.055.512-1.537.452a2.21 2.21 0 0 1-1.22-.588 2.57 2.57 0 0 1-.679-1.22 2.625 2.625 0 0 1 .045-1.447c.181-.512.543-.949 1.085-1.31a15.013 15.013 0 0 1 4.34-1.99 18.17 18.17 0 0 1 4.881-.677c2.291 0 4.219.346 5.786 1.04 1.567.692 2.758 1.702 3.571 3.028.814 1.326 1.221 2.938 1.221 4.837a11.14 11.14 0 0 1-.633 3.706c-.392 1.206-1.009 2.426-1.853 3.661-.814 1.236-1.884 2.547-3.21 3.933l-8.498 8.86v-1.537h13.29c.813 0 1.431.196 1.853.588.422.391.633.979.633 1.763 0 .783-.211 1.386-.633 1.808-.422.421-1.04.632-1.853.632H92.198ZM131.959 54.002c-.904 0-1.612-.241-2.125-.723-.512-.513-.768-1.236-.768-2.17v-3.526h-11.165c-.934 0-1.688-.196-2.26-.587-.543-.392-.814-1.01-.814-1.854 0-.482.121-1.01.362-1.582.271-.572.738-1.326 1.401-2.26l12.386-17.945c.421-.633.889-1.115 1.401-1.447.512-.331 1.1-.497 1.763-.497.783 0 1.431.241 1.943.723.513.452.769 1.175.769 2.17v18.488h2.215c.874 0 1.522.21 1.944.633.452.391.678.979.678 1.763 0 .783-.226 1.386-.678 1.808-.422.391-1.07.587-1.944.587h-2.215v3.526c0 .934-.256 1.657-.769 2.17-.512.482-1.22.723-2.124.723Zm-2.893-11.21V28.689h1.311l-10.668 15.64v-1.537h9.357ZM153.548 54.093c-2.32 0-4.339-.468-6.057-1.402a9.945 9.945 0 0 1-3.978-4.068c-.934-1.748-1.401-3.797-1.401-6.148 0-1.778.256-3.36.768-4.746.543-1.416 1.311-2.607 2.306-3.57.994-.995 2.199-1.749 3.616-2.261 1.416-.542 2.998-.814 4.746-.814.995 0 2.064.136 3.21.407 1.175.271 2.275.723 3.299 1.356.482.302.799.663.95 1.085a2.396 2.396 0 0 1-.498 2.44 1.889 1.889 0 0 1-1.039.589c-.422.06-.889-.045-1.402-.317a7.922 7.922 0 0 0-2.034-.859 6.829 6.829 0 0 0-1.989-.316c-.994 0-1.868.166-2.621.497a5.152 5.152 0 0 0-1.944 1.356c-.512.573-.904 1.296-1.175 2.17-.272.874-.407 1.884-.407 3.029 0 2.23.527 3.992 1.582 5.288 1.085 1.266 2.607 1.899 4.565 1.899.633 0 1.281-.09 1.944-.271a8.68 8.68 0 0 0 2.079-.86c.513-.27.965-.36 1.356-.27.422.09.769.3 1.04.632.271.302.437.678.497 1.13.061.422 0 .844-.18 1.266-.151.422-.452.769-.905 1.04a11.155 11.155 0 0 1-3.164 1.31c-1.115.272-2.169.407-3.164.407ZM171.799 54.093c-1.597 0-3.029-.302-4.295-.905-1.235-.632-2.215-1.476-2.938-2.53-.693-1.056-1.039-2.246-1.039-3.572 0-1.627.421-2.908 1.265-3.842.844-.965 2.215-1.658 4.114-2.08 1.898-.421 4.445-.632 7.639-.632h2.26v3.254h-2.215c-1.868 0-3.36.09-4.475.271-1.115.181-1.913.498-2.396.95-.452.422-.678 1.024-.678 1.808 0 .994.347 1.808 1.04 2.44.693.634 1.657.95 2.893.95.994 0 1.868-.226 2.622-.678a5.221 5.221 0 0 0 1.853-1.944c.452-.813.678-1.747.678-2.802v-5.199c0-1.506-.331-2.591-.994-3.254-.663-.663-1.778-.995-3.345-.995-.874 0-1.824.106-2.848.317-.995.21-2.049.572-3.164 1.085-.573.27-1.085.346-1.537.226a1.73 1.73 0 0 1-.995-.724 2.372 2.372 0 0 1-.361-1.265c0-.452.12-.89.361-1.311.241-.452.648-.784 1.221-.995 1.386-.572 2.712-.979 3.978-1.22 1.295-.241 2.471-.362 3.525-.362 2.17 0 3.948.332 5.334.995 1.417.663 2.471 1.672 3.164 3.028.694 1.326 1.04 3.044 1.04 5.154v10.848c0 .934-.226 1.657-.678 2.17-.452.482-1.1.723-1.944.723-.843 0-1.506-.241-1.989-.723-.452-.513-.678-1.236-.678-2.17v-2.17h.362c-.211 1.055-.633 1.974-1.266 2.758-.602.753-1.371 1.34-2.305 1.763-.934.422-2.004.633-3.209.633ZM192.044 62.139c-.904 0-1.597-.242-2.08-.724-.482-.482-.723-1.19-.723-2.124V34.023c0-.935.241-1.643.723-2.125.483-.482 1.161-.723 2.035-.723.904 0 1.597.24 2.079.723.482.482.723 1.19.723 2.125v3.525l-.497-1.356c.452-1.537 1.371-2.772 2.757-3.706 1.417-.935 3.059-1.402 4.927-1.402 1.929 0 3.617.467 5.063 1.402 1.477.934 2.622 2.26 3.435 3.977.814 1.688 1.221 3.722 1.221 6.103 0 2.35-.407 4.4-1.221 6.147-.813 1.718-1.943 3.044-3.39 3.978-1.446.934-3.149 1.401-5.108 1.401-1.838 0-3.45-.452-4.836-1.356-1.387-.934-2.321-2.14-2.803-3.616h.543v10.17c0 .935-.257 1.643-.769 2.125-.482.483-1.175.724-2.079.724Zm8.362-12.34c1.115 0 2.095-.272 2.938-.814.844-.543 1.492-1.341 1.944-2.396.482-1.085.723-2.426.723-4.023 0-2.411-.512-4.204-1.536-5.38-1.025-1.205-2.381-1.807-4.069-1.807-1.115 0-2.094.27-2.938.813-.844.513-1.507 1.311-1.989 2.396-.452 1.055-.678 2.38-.678 3.978 0 2.38.512 4.189 1.537 5.424 1.025 1.206 2.381 1.808 4.068 1.808ZM226.25 54.093c-1.959 0-3.601-.332-4.927-.995-1.296-.663-2.26-1.627-2.893-2.893-.633-1.296-.949-2.893-.949-4.791v-9.629h-2.351c-.723 0-1.281-.18-1.673-.542-.391-.392-.587-.92-.587-1.582 0-.693.196-1.22.587-1.582.392-.362.95-.543 1.673-.543h2.351v-4.113c0-.934.241-1.642.723-2.125.512-.482 1.22-.723 2.124-.723.904 0 1.597.241 2.08.723.482.483.723 1.19.723 2.125v4.113h4.791c.724 0 1.281.181 1.673.543.392.361.587.889.587 1.582 0 .663-.195 1.19-.587 1.582-.392.362-.949.542-1.673.542h-4.791v9.312c0 1.447.316 2.532.949 3.255.633.723 1.658 1.085 3.074 1.085.512 0 .964-.046 1.356-.136a8.41 8.41 0 0 1 1.04-.18c.361-.031.663.09.904.36.241.242.361.754.361 1.538 0 .602-.105 1.145-.316 1.627-.181.452-.527.768-1.04.95-.392.12-.904.225-1.537.316-.633.12-1.19.18-1.672.18ZM243.468 54.093c-2.321 0-4.34-.468-6.057-1.402a9.945 9.945 0 0 1-3.978-4.068c-.934-1.748-1.401-3.797-1.401-6.148 0-1.778.256-3.36.768-4.746.542-1.416 1.311-2.607 2.305-3.57.995-.995 2.2-1.749 3.617-2.261 1.416-.542 2.998-.814 4.746-.814.994 0 2.064.136 3.209.407 1.175.271 2.275.723 3.3 1.356.482.302.799.663.949 1.085.151.422.181.859.091 1.311a2.414 2.414 0 0 1-.588 1.13 1.892 1.892 0 0 1-1.04.588c-.422.06-.889-.045-1.401-.317a7.922 7.922 0 0 0-2.034-.859 6.829 6.829 0 0 0-1.989-.316c-.994 0-1.868.166-2.622.497a5.157 5.157 0 0 0-1.943 1.356c-.513.573-.905 1.296-1.176 2.17-.271.874-.407 1.884-.407 3.029 0 2.23.528 3.992 1.583 5.288 1.084 1.266 2.606 1.899 4.565 1.899.633 0 1.281-.09 1.944-.271a8.68 8.68 0 0 0 2.079-.86c.512-.27.964-.36 1.356-.27.422.09.769.3 1.04.632.271.302.437.678.497 1.13.06.422 0 .844-.181 1.266-.15.422-.452.769-.904 1.04a11.155 11.155 0 0 1-3.164 1.31c-1.115.272-2.17.407-3.164.407ZM257.376 54.002c-.904 0-1.597-.241-2.08-.723-.482-.513-.723-1.236-.723-2.17V24.26c0-.934.241-1.643.723-2.125.483-.482 1.176-.723 2.08-.723.904 0 1.597.241 2.079.723.512.482.768 1.19.768 2.125v11.707h-.632c.663-1.597 1.687-2.802 3.073-3.616 1.417-.844 3.014-1.266 4.792-1.266s3.239.332 4.385.995c1.145.663 2.004 1.672 2.576 3.028.573 1.326.859 3.014.859 5.063v10.94c0 .933-.241 1.657-.723 2.169-.482.482-1.176.723-2.08.723-.904 0-1.612-.241-2.124-.723-.482-.513-.723-1.236-.723-2.17V40.441c0-1.717-.332-2.968-.995-3.752-.633-.783-1.627-1.175-2.983-1.175-1.658 0-2.984.528-3.978 1.582-.964 1.025-1.447 2.396-1.447 4.114v9.9c0 1.928-.949 2.892-2.847 2.892ZM288.293 54.093c-1.598 0-3.029-.302-4.295-.905-1.235-.632-2.215-1.476-2.938-2.53-.693-1.056-1.04-2.246-1.04-3.572 0-1.627.422-2.908 1.266-3.842.844-.965 2.215-1.658 4.114-2.08 1.898-.421 4.444-.632 7.639-.632h2.26v3.254h-2.215c-1.868 0-3.36.09-4.475.271-1.115.181-1.914.498-2.396.95-.452.422-.678 1.024-.678 1.808 0 .994.347 1.808 1.04 2.44.693.634 1.657.95 2.893.95.994 0 1.868-.226 2.622-.678a5.221 5.221 0 0 0 1.853-1.944c.452-.813.678-1.747.678-2.802v-5.199c0-1.506-.332-2.591-.995-3.254-.663-.663-1.778-.995-3.345-.995-.873 0-1.823.106-2.847.317-.995.21-2.05.572-3.165 1.085-.572.27-1.084.346-1.536.226a1.73 1.73 0 0 1-.995-.724 2.372 2.372 0 0 1-.361-1.265c0-.452.12-.89.361-1.311.241-.452.648-.784 1.221-.995 1.386-.572 2.712-.979 3.977-1.22 1.296-.241 2.472-.362 3.526-.362 2.17 0 3.948.332 5.334.995 1.416.663 2.471 1.672 3.164 3.028.693 1.326 1.04 3.044 1.04 5.154v10.848c0 .934-.226 1.657-.678 2.17-.452.482-1.1.723-1.944.723-.844 0-1.507-.241-1.989-.723-.452-.513-.678-1.236-.678-2.17v-2.17h.362c-.211 1.055-.633 1.974-1.266 2.758-.602.753-1.371 1.34-2.305 1.763-.934.422-2.004.633-3.209.633Z"/><path fill="#00AEEF" fill-rule="evenodd" d="M54.243 57.86a3.616 3.616 0 1 0 0 7.232 3.616 3.616 0 0 0 0-7.233Zm-6.027 3.616a6.027 6.027 0 1 1 12.054 0 6.027 6.027 0 0 1-12.054 0ZM30.135 57.86a3.616 3.616 0 1 0 0 7.232 3.616 3.616 0 0 0 0-7.233Zm-6.027 3.616a6.027 6.027 0 1 1 12.054 0 6.027 6.027 0 0 1-12.054 0ZM6.87 12.054c0-.666.54-1.205 1.206-1.205h4.34c2.857 0 5.35 2.026 5.884 4.833l.712 3.604h49.153c2.541 0 4.259 2.543 3.356 4.893l-9.58 24.942a6.01 6.01 0 0 1-5.649 3.916H28.086c-2.873 0-5.344-2.038-5.941-4.874a1.696 1.696 0 0 1-.004-.022l-5.176-27.066a1.206 1.206 0 0 1-.127-.35l-.904-4.58-.002-.01c-.312-1.65-1.795-2.876-3.516-2.876h-4.34c-.666 0-1.205-.54-1.205-1.205Zm12.669 9.643.922 4.822h28.9a1.205 1.205 0 1 1 0 2.41h-28.44l3.585 18.748c.371 1.739 1.875 2.95 3.58 2.95h28.206a3.6 3.6 0 0 0 3.392-2.352l.003-.009 9.583-24.952a1.185 1.185 0 0 0-1.105-1.617H19.54Zm34.041 6.027c0-.666.54-1.205 1.206-1.205h1.808a1.205 1.205 0 1 1 0 2.41h-1.808c-.666 0-1.206-.539-1.206-1.205Z" clip-rule="evenodd"/></svg>
